<?xml version="1.0" standalone="no"?>
<!DOCTYPE svg PUBLIC "-//W3C//DTD SVG 20010904//EN"
 "http://www.w3.org/TR/2001/REC-SVG-20010904/DTD/svg10.dtd">
<svg version="1.0" xmlns="http://www.w3.org/2000/svg"
 width="300.000000pt" height="300.000000pt" viewBox="0 0 300.000000 300.000000"
 preserveAspectRatio="xMidYMid meet">
<metadata>
Created by potrace 1.14, written by Peter Selinger 2001-2017
</metadata>
<g transform="translate(0.000000,300.000000) scale(0.100000,-0.100000)"
fill="#000000" stroke="none">
<path d="M1345 2836 c-27 -7 -67 -20 -88 -30 -87 -42 -178 -193 -158 -261 4
-17 18 -50 31 -75 43 -84 41 -89 -94 -202 -67 -56 -156 -133 -199 -172 -43
-38 -106 -88 -140 -111 -34 -23 -75 -60 -92 -84 -27 -38 -30 -51 -30 -114 0
-58 5 -79 23 -109 32 -51 81 -79 150 -85 109 -9 184 58 186 167 1 26 8 55 16
65 8 10 64 61 124 112 l109 95 18 -44 c9 -23 34 -86 54 -139 l37 -96 -37 -147
c-34 -134 -37 -154 -30 -234 8 -112 -5 -172 -54 -237 -47 -62 -80 -121 -115
-206 -22 -51 -38 -73 -70 -96 -23 -17 -50 -47 -60 -67 -26 -54 -32 -135 -13
-177 8 -19 20 -64 26 -101 23 -136 83 -220 182 -251 64 -21 90 -21 136 -2 36
15 37 15 72 -19 69 -65 139 -84 242 -66 126 23 200 90 206 188 3 31 13 73 23
92 32 62 114 421 124 549 7 85 35 218 71 342 l26 87 -16 133 c-9 74 -18 149
-20 167 -2 18 -24 91 -50 162 l-46 129 27 47 c24 41 27 57 26 121 -1 51 3 82
13 97 21 32 29 105 16 152 -6 23 -28 60 -49 84 -33 37 -51 46 -162 83 l-125
42 -35 67 c-44 83 -93 135 -140 148 -43 12 -51 12 -115 -4z m129 -94 c10 -9
36 -52 58 -95 36 -73 43 -80 91 -102 29 -12 85 -32 126 -43 90 -26 113 -41
135 -85 23 -50 20 -90 -10 -126 -24 -29 -25 -34 -16 -88 12 -71 1 -115 -38
-145 l-30 -24 51 -139 c52 -143 72 -230 88 -391 9 -83 7 -99 -14 -172 -34
-116 -62 -261 -74 -377 -13 -121 -83 -424 -112 -480 -11 -22 -23 -67 -26 -100
-7 -74 -23 -98 -76 -124 -63 -30 -135 -36 -182 -17 -96 40 -110 92 -42 151 94
82 99 88 93 120 -5 25 14 303 28 415 l5 35 -35 -40 c-18 -22 -71 -107 -116
-189 -52 -95 -89 -151 -102 -154 -18 -5 -18 -12 -12 -123 l7 -119 -35 -16
c-30 -15 -41 -15 -79 -4 -82 22 -130 96 -143 219 -4 31 -13 66 -20 78 -34 54
-7 134 58 174 37 23 47 37 72 100 34 86 86 180 127 226 42 49 53 101 55 263 1
132 4 154 33 247 17 56 31 113 31 126 0 23 -11 56 -65 202 -15 39 -38 103 -52
143 -13 39 -28 72 -32 72 -8 0 -235 -190 -330 -277 -53 -48 -54 -50 -43 -81
26 -76 -20 -138 -97 -129 -57 6 -91 40 -98 97 -8 59 17 101 86 147 31 20 108
82 171 138 63 55 164 141 223 190 102 85 108 92 103 121 -2 18 0 36 5 41 5 5
-8 40 -31 85 l-40 76 19 44 c35 83 94 131 181 149 44 9 80 2 104 -19z m-63
-2183 c-5 -59 -10 -69 -38 -94 l-33 -27 0 35 c0 23 12 52 35 87 19 29 35 57
35 63 0 6 2 8 4 6 2 -2 1 -34 -3 -70z"/>
</g>
</svg>
